<svg width="19" height="19" viewBox="0 0 19 19" fill="none" xmlns="http://www.w3.org/2000/svg">
<path d="M4.65625 4.54095H18.2301L16.2977 12.7538C16.0467 13.8201 15.0953 14.5737 13.9998 14.5737H9.12913C8.05798 14.5737 7.12111 13.8526 6.84702 12.8172L4.65625 4.54095ZM4.65625 4.54095L3.77099 0.999969H1.11523" fill="#222222"/>
<path d="M4.65625 4.54095H18.2301L16.2977 12.7538C16.0467 13.8201 15.0953 14.5737 13.9998 14.5737H9.12913C8.05798 14.5737 7.12111 13.8526 6.84702 12.8172L4.65625 4.54095ZM4.65625 4.54095L3.77099 0.999969H1.11523" stroke="#222222" stroke-width="1.2" stroke-linecap="round" stroke-linejoin="round"/>
<path d="M7.31315 19C7.96503 19 8.49349 18.4716 8.49349 17.8197C8.49349 17.1678 7.96503 16.6394 7.31315 16.6394C6.66127 16.6394 6.13281 17.1678 6.13281 17.8197C6.13281 18.4716 6.66127 19 7.31315 19Z" fill="#222222"/>
<path d="M15.5749 19C16.2268 19 16.7552 18.4716 16.7552 17.8197C16.7552 17.1678 16.2268 16.6394 15.5749 16.6394C14.923 16.6394 14.3945 17.1678 14.3945 17.8197C14.3945 18.4716 14.923 19 15.5749 19Z" fill="#222222"/>
</svg>
