<svg width="16" height="16" viewBox="0 0 16 16" fill="none" xmlns="http://www.w3.org/2000/svg">
<path d="M8 16C9.05076 16.0013 10.0914 15.795 11.0622 15.3928C12.033 14.9907 12.9147 14.4007 13.6568 13.6568C14.4007 12.9147 14.9907 12.033 15.3928 11.0622C15.795 10.0914 16.0013 9.05076 16 8C16.0013 6.94924 15.795 5.90857 15.3928 4.9378C14.9907 3.96702 14.4007 3.08527 13.6568 2.3432C12.9147 1.59927 12.033 1.00929 11.0622 0.607172C10.0914 0.205051 9.05076 -0.00128967 8 6.06477e-06C6.94924 -0.00128967 5.90857 0.205051 4.9378 0.607172C3.96702 1.00929 3.08527 1.59927 2.3432 2.3432C1.59927 3.08527 1.00929 3.96702 0.607172 4.9378C0.205051 5.90857 -0.00128967 6.94924 6.06477e-06 8C-0.00128967 9.05076 0.205051 10.0914 0.607172 11.0622C1.00929 12.033 1.59927 12.9147 2.3432 13.6568C3.08527 14.4007 3.96702 14.9907 4.9378 15.3928C5.90857 15.795 6.94924 16.0013 8 16Z" fill="#FFD59A"/>
<path d="M4.80078 8L7.20078 10.4L12.0008 5.60001" fill="#FFD59A"/>
<path d="M4.80078 8L7.20078 10.4L12.0008 5.60001" stroke="#222222" stroke-width="1.2" stroke-linecap="round" stroke-linejoin="round"/>
</svg>
