<svg width="16" height="16" viewBox="0 0 16 16" fill="none" xmlns="http://www.w3.org/2000/svg">
<path d="M8 16C12.4183 16 16 12.4183 16 8C16 3.58172 12.4183 0 8 0C3.58172 0 0 3.58172 0 8C0 12.4183 3.58172 16 8 16Z" fill="#222222"/>
<path fill-rule="evenodd" clip-rule="evenodd" d="M7.99946 2.75862C8.45652 2.75862 8.82705 3.12914 8.82705 3.58621V7.6572L10.7915 9.62171C11.1147 9.9449 11.1147 10.4689 10.7915 10.7921C10.4684 11.1153 9.94436 11.1153 9.62117 10.7921L7.17188 8.3428V3.58621C7.17188 3.12914 7.5424 2.75862 7.99946 2.75862Z" fill="white"/>
</svg>
