<svg width="16" height="16" viewBox="0 0 16 16" fill="none" xmlns="http://www.w3.org/2000/svg">
<path d="M6.75 8.75C6.75 7.6454 7.6454 6.75 8.75 6.75H13.25C14.3546 6.75 15.25 7.6454 15.25 8.75V13.25C15.25 14.3546 14.3546 15.25 13.25 15.25H8.75C7.6454 15.25 6.75 14.3546 6.75 13.25V8.75Z" fill="#222222"/>
<path fill-rule="evenodd" clip-rule="evenodd" d="M8.75 7.5C8.05961 7.5 7.5 8.05961 7.5 8.75V13.25C7.5 13.9404 8.05961 14.5 8.75 14.5H13.25C13.9404 14.5 14.5 13.9404 14.5 13.25V8.75C14.5 8.05961 13.9404 7.5 13.25 7.5H8.75ZM6 8.75C6 7.23119 7.23119 6 8.75 6H13.25C14.7688 6 16 7.23119 16 8.75V13.25C16 14.7688 14.7688 16 13.25 16H8.75C7.23119 16 6 14.7688 6 13.25V8.75Z" fill="#222222"/>
<path fill-rule="evenodd" clip-rule="evenodd" d="M2.00002 3C2.2226 3 2.43369 3.09887 2.57618 3.26986L3.82618 4.76986C4.09136 5.08807 4.04836 5.56099 3.73016 5.82617C3.41195 6.09134 2.93903 6.04835 2.67385 5.73014L2.00002 4.92154L1.32618 5.73014C1.06101 6.04835 0.588088 6.09134 0.26988 5.82617C-0.0483272 5.56099 -0.0913202 5.08807 0.173853 4.76986L1.42385 3.26986C1.56635 3.09887 1.77743 3 2.00002 3Z" fill="#222222"/>
<path fill-rule="evenodd" clip-rule="evenodd" d="M7.78033 0.21967C8.07322 0.512563 8.07322 0.987437 7.78033 1.28033L7.06066 2L7.78033 2.71967C8.07322 3.01256 8.07322 3.48744 7.78033 3.78033C7.48744 4.07322 7.01256 4.07322 6.71967 3.78033L5.46967 2.53033C5.17678 2.23744 5.17678 1.76256 5.46967 1.46967L6.71967 0.21967C7.01256 -0.0732233 7.48744 -0.0732233 7.78033 0.21967Z" fill="#222222"/>
<path fill-rule="evenodd" clip-rule="evenodd" d="M13.4697 0.21967C13.7626 -0.0732233 14.2374 -0.0732233 14.5303 0.21967L15.7803 1.46967C16.0732 1.76256 16.0732 2.23744 15.7803 2.53033L14.5303 3.78033C14.2374 4.07322 13.7626 4.07322 13.4697 3.78033C13.1768 3.48744 13.1768 3.01256 13.4697 2.71967L14.1893 2L13.4697 1.28033C13.1768 0.987437 13.1768 0.512563 13.4697 0.21967Z" fill="#222222"/>
<path fill-rule="evenodd" clip-rule="evenodd" d="M0.26988 13.1739C0.588088 12.9087 1.06101 12.9517 1.32618 13.2699L2.00002 14.0785L2.67385 13.2699C2.93903 12.9517 3.41195 12.9087 3.73016 13.1739C4.04836 13.439 4.09136 13.9119 3.82618 14.2302L2.57618 15.7302C2.43369 15.9012 2.2226 16 2.00002 16C1.77743 16 1.56635 15.9012 1.42385 15.7302L0.173853 14.2302C-0.0913202 13.9119 -0.0483272 13.439 0.26988 13.1739Z" fill="#222222"/>
<path fill-rule="evenodd" clip-rule="evenodd" d="M2 3.75C2.41421 3.75 2.75 4.08579 2.75 4.5V14.5C2.75 14.9142 2.41421 15.25 2 15.25C1.58579 15.25 1.25 14.9142 1.25 14.5V4.5C1.25 4.08579 1.58579 3.75 2 3.75Z" fill="#222222"/>
<path fill-rule="evenodd" clip-rule="evenodd" d="M6.25 2C6.25 1.58579 6.58579 1.25 7 1.25H15C15.4142 1.25 15.75 1.58579 15.75 2C15.75 2.41421 15.4142 2.75 15 2.75H7C6.58579 2.75 6.25 2.41421 6.25 2Z" fill="#222222"/>
</svg>
