<svg width="16" height="15" viewBox="0 0 16 15" fill="none" xmlns="http://www.w3.org/2000/svg">
<path d="M0 2.81035C0 1.59152 0.988061 0.603455 2.2069 0.603455H13.7931C15.012 0.603455 16 1.59152 16 2.81035V12.1897C16 13.4085 15.012 14.3966 13.7931 14.3966H2.2069C0.988061 14.3966 0 13.4085 0 12.1897V2.81035Z" fill="#222222"/>
<path fill-rule="evenodd" clip-rule="evenodd" d="M0.207737 0.882698C0.510575 0.540359 1.03359 0.508338 1.37593 0.811176L8.00001 6.67094L14.6241 0.811176C14.9664 0.508338 15.4894 0.540359 15.7923 0.882698C16.0951 1.22504 16.0631 1.74806 15.7208 2.05089L8.54835 8.39572C8.23525 8.67269 7.76477 8.67269 7.45167 8.39572L0.279259 2.05089C-0.06308 1.74806 -0.0951016 1.22504 0.207737 0.882698Z" fill="white"/>
</svg>
