<svg width="18" height="21" viewBox="0 0 18 21" fill="none" xmlns="http://www.w3.org/2000/svg">
<path d="M11.0345 7.74138C10.7612 7.73781 10.5002 7.62767 10.3069 7.43444C10.1137 7.2412 10.0036 6.98015 10 6.7069V0.5H2.75862C2.02699 0.5 1.32532 0.79064 0.807981 1.30798C0.29064 1.82532 0 2.52699 0 3.25862L0 17.7414C0 18.473 0.29064 19.1747 0.807981 19.692C1.32532 20.2094 2.02699 20.5 2.75862 20.5H14.4828C15.2144 20.5 15.9161 20.2094 16.4334 19.692C16.9507 19.1747 17.2414 18.473 17.2414 17.7414V7.74138H11.0345Z" fill="#222222"/>
<path d="M12.2211 5.32754V0.913746C12.2178 0.845173 12.2359 0.777268 12.2729 0.719432C12.3098 0.661596 12.3639 0.616691 12.4275 0.590933C12.4912 0.565175 12.5612 0.55984 12.628 0.575665C12.6948 0.59149 12.7551 0.627694 12.8004 0.679263L17.2418 5.07926C17.2919 5.12749 17.3262 5.18973 17.3403 5.25782C17.3544 5.32591 17.3475 5.39667 17.3207 5.46081C17.2938 5.52495 17.2482 5.57947 17.1898 5.61723C17.1314 5.65498 17.063 5.6742 16.9935 5.67237H12.5659C12.4745 5.67237 12.3868 5.63604 12.3221 5.57137C12.2574 5.5067 12.2211 5.41899 12.2211 5.32754Z" fill="#222222"/>
</svg>
