<svg width="17" height="17" viewBox="0 0 17 17" fill="none" xmlns="http://www.w3.org/2000/svg">
<path d="M5.17969 9.23685C5.40393 14.2023 7.58231 16.8719 8.54336 16.8719C9.50441 16.8719 11.6508 14.2023 11.8643 9.23685H5.17969Z" fill="#222222"/>
<path d="M11.8216 7.635C11.5974 2.62687 9.32288 0 8.54336 0C7.76384 0 5.40393 2.66958 5.17969 7.635H11.8216Z" fill="#222222"/>
<path d="M13.422 7.63495H16.9992C16.844 6.00993 16.2265 4.4634 15.2197 3.17842C14.2129 1.89344 12.8591 0.923835 11.3184 0.384369C12.6575 2.56869 13.3841 5.07312 13.422 7.63495Z" fill="#222222"/>
<path d="M3.58792 7.63495C3.63549 5.07011 4.37323 2.56547 5.72358 0.384369C4.17491 0.917126 2.81201 1.88383 1.79725 3.16932C0.782491 4.45481 0.158635 6.0049 0 7.63495H3.58792Z" fill="#222222"/>
<path d="M3.58792 9.23685H0C0.1541 10.865 0.772325 12.4147 1.78123 13.7019C2.79014 14.9891 4.14732 15.9596 5.69155 16.4981C4.354 14.3092 3.62758 11.8018 3.58792 9.23685Z" fill="#222222"/>
<path d="M13.4228 9.23685C13.3735 11.8048 12.6359 14.3124 11.2871 16.4981C12.8293 15.9579 14.1843 14.9867 15.1912 13.6996C16.1981 12.4126 16.8147 10.8638 16.968 9.23685H13.4228Z" fill="#222222"/>
</svg>
