<svg width="16" height="16" viewBox="0 0 16 16" fill="none" xmlns="http://www.w3.org/2000/svg">
<path d="M0 1.26009C0 0.564169 0.564169 0 1.26009 0H5.67042C6.36634 0 6.93051 0.564169 6.93051 1.26009V5.67042C6.93051 6.36634 6.36634 6.93051 5.67042 6.93051H1.26009C0.564169 6.93051 0 6.36634 0 5.67042V1.26009Z" fill="#222222"/>
<path d="M8.93066 1.26009C8.93066 0.564169 9.49481 0 10.1908 0H14.6011C15.297 0 15.8612 0.564169 15.8612 1.26009V5.67042C15.8612 6.36634 15.297 6.93051 14.6011 6.93051H10.1908C9.49481 6.93051 8.93066 6.36634 8.93066 5.67042V1.26009Z" fill="#222222"/>
<path d="M0 10.1906C0 9.49462 0.564169 8.93048 1.26009 8.93048H5.67042C6.36634 8.93048 6.93051 9.49462 6.93051 10.1906V14.6009C6.93051 15.2968 6.36634 15.861 5.67042 15.861H1.26009C0.564169 15.861 0 15.2968 0 14.6009V10.1906Z" fill="#222222"/>
<path d="M8.93066 10.1906C8.93066 9.49462 9.49481 8.93048 10.1908 8.93048H14.6011C15.297 8.93048 15.8612 9.49462 15.8612 10.1906V14.6009C15.8612 15.2968 15.297 15.861 14.6011 15.861H10.1908C9.49481 15.861 8.93066 15.2968 8.93066 14.6009V10.1906Z" fill="#222222"/>
</svg>
