<svg width="16" height="16" viewBox="0 0 16 16" fill="none" xmlns="http://www.w3.org/2000/svg">
<path fill-rule="evenodd" clip-rule="evenodd" d="M16 8C16 12.4182 12.4182 16 8 16C3.58172 16 0 12.4182 0 8C0 3.58172 3.58172 0 8 0C12.4182 0 16 3.58172 16 8ZM8 12.6C8.33136 12.6 8.6 12.3314 8.6 12V7.2C8.6 6.86864 8.33136 6.6 8 6.6C7.66864 6.6 7.4 6.86864 7.4 7.2V12C7.4 12.3314 7.66864 12.6 8 12.6ZM8 4C8.44184 4 8.8 4.35818 8.8 4.8C8.8 5.24182 8.44184 5.6 8 5.6C7.55816 5.6 7.2 5.24182 7.2 4.8C7.2 4.35818 7.55816 4 8 4Z" fill="#222222"/>
</svg>
