<svg width="16" height="17" viewBox="0 0 16 17" fill="none" xmlns="http://www.w3.org/2000/svg">
<path d="M7.82422 0.5C6.49814 0.5 5.22637 1.02678 4.28868 1.96447C3.351 2.90215 2.82422 4.17392 2.82422 5.5C2.85812 6.42571 3.11912 7.32889 3.58422 8.13C4.02021 8.89173 4.54376 9.59987 5.14422 10.24C5.62015 10.7765 6.12772 11.2841 6.66422 11.76L7.17422 12.19L7.31422 12.3H7.37422C7.5079 12.3878 7.66431 12.4345 7.82422 12.4345C7.98413 12.4345 8.14054 12.3878 8.27422 12.3H8.33422L8.48422 12.19L8.98422 11.76C9.52427 11.2845 10.0352 10.7769 10.5142 10.24C11.1116 9.57916 11.6347 8.85484 12.0742 8.08C12.5288 7.29313 12.7861 6.40793 12.8242 5.5C12.8242 4.84339 12.6949 4.19321 12.4436 3.58658C12.1923 2.97995 11.824 2.42876 11.3598 1.96447C10.8955 1.50017 10.3443 1.13188 9.73764 0.880602C9.13101 0.629329 8.48083 0.5 7.82422 0.5Z" fill="#222222"/>
<path fill-rule="evenodd" clip-rule="evenodd" d="M7.12393 4.79002C7.31019 4.60527 7.56159 4.50112 7.82393 4.50002C7.95554 4.49926 8.086 4.52448 8.20784 4.57425C8.32968 4.62401 8.44049 4.69734 8.53393 4.79002C8.62766 4.88298 8.70205 4.99358 8.75282 5.11544C8.80359 5.2373 8.82973 5.368 8.82973 5.50002C8.82973 5.63203 8.80359 5.76273 8.75282 5.88459C8.70205 6.00645 8.62766 6.11705 8.53393 6.21002C8.44049 6.3027 8.32968 6.37602 8.20784 6.42579C8.086 6.47555 7.95554 6.50078 7.82393 6.50002C7.62616 6.49919 7.43307 6.43973 7.26909 6.32917C7.10511 6.21861 6.97759 6.0619 6.90266 5.87887C6.82774 5.69584 6.80877 5.4947 6.84815 5.30088C6.88754 5.10707 6.98351 4.92929 7.12393 4.79002Z" fill="white"/>
<path d="M13.8739 16.5H1.77388C1.51557 16.4985 1.26032 16.444 1.02388 16.34C0.791604 16.2296 0.586689 16.0691 0.42388 15.87C0.256442 15.6755 0.133816 15.4466 0.0646907 15.1995C-0.00443434 14.9524 -0.018367 14.6931 0.0238799 14.44L0.83388 10.12C0.870494 9.92217 0.983075 9.74653 1.14754 9.63066C1.312 9.51479 1.51528 9.46789 1.71388 9.49999C1.90722 9.53882 2.07789 9.65129 2.18985 9.81363C2.30181 9.97597 2.34628 10.1755 2.31388 10.37L1.52388 14.7C1.5184 14.7364 1.5184 14.7735 1.52388 14.81C1.53435 14.8461 1.55129 14.88 1.57388 14.91C1.59721 14.9408 1.62825 14.965 1.66388 14.98H13.9739C14.0049 14.9622 14.0321 14.9384 14.0539 14.91C14.0829 14.883 14.1037 14.8483 14.1139 14.81C14.1239 14.7774 14.1239 14.7426 14.1139 14.71L13.3239 10.38C13.3068 10.2828 13.309 10.1832 13.3305 10.0869C13.3519 9.99059 13.3921 9.89944 13.4487 9.81865C13.5053 9.73787 13.5773 9.66903 13.6606 9.61607C13.7438 9.56311 13.8367 9.52706 13.9339 9.50999C14.0311 9.49292 14.1306 9.49515 14.227 9.51657C14.3233 9.53798 14.4144 9.57816 14.4952 9.6348C14.6584 9.7492 14.7694 9.92373 14.8039 10.12L15.5939 14.44C15.6425 14.691 15.6425 14.949 15.5939 15.2C15.524 15.4448 15.4049 15.6728 15.2439 15.87C15.0812 16.0667 14.8761 16.2239 14.6439 16.33C14.403 16.4432 14.14 16.5013 13.8739 16.5Z" fill="#222222"/>
</svg>
