<svg width="16" height="17" viewBox="0 0 16 17" fill="none" xmlns="http://www.w3.org/2000/svg">
<path d="M0 8.5C0 4.08172 3.59332 0.5 8.02591 0.5C12.1483 0.5 15.5449 3.59799 16 7.58571H9.32308L10.509 6.40364C10.8672 6.04659 10.8672 5.4677 10.509 5.11064C10.1508 4.75359 9.57001 4.75359 9.21182 5.11064L6.46008 7.85351C6.10187 8.21054 6.10187 8.78946 6.46008 9.14649L9.21182 11.8893C9.57001 12.2464 10.1508 12.2464 10.509 11.8893C10.8672 11.5323 10.8672 10.9534 10.509 10.5964L9.32308 9.41429H16C15.5449 13.402 12.1483 16.5 8.02591 16.5C3.59332 16.5 0 12.9183 0 8.5Z" fill="#222222"/>
</svg>
