<svg width="18" height="17" viewBox="0 0 18 17" fill="none" xmlns="http://www.w3.org/2000/svg">
<path d="M17.6283 3.68648L14.1748 0.233068C14.0254 0.0838271 13.8229 0 13.6117 0C13.4005 0 13.1979 0.0838271 13.0485 0.233068L11.9115 1.37004L13.3885 2.90016C13.4969 3.01277 13.5697 3.15475 13.598 3.30844C13.6263 3.46213 13.6088 3.62074 13.5476 3.76455C13.4865 3.90836 13.3844 4.03101 13.2541 4.11727C13.1238 4.20352 12.971 4.24955 12.8147 4.24965C12.7077 4.24898 12.6018 4.22704 12.5033 4.18508C12.4048 4.14312 12.3156 4.082 12.2409 4.00525L10.7852 2.49638L9.78636 3.49521L11.2634 5.02534C11.3717 5.13795 11.4446 5.27993 11.4728 5.43361C11.5011 5.5873 11.4836 5.74591 11.4225 5.88972C11.3613 6.03353 11.2592 6.15619 11.1289 6.24244C10.9986 6.32869 10.8458 6.37473 10.6896 6.37482C10.5825 6.37416 10.4766 6.35221 10.3781 6.31025C10.2796 6.2683 10.1904 6.20717 10.1158 6.13043L8.66002 4.62155L7.66119 5.62039L9.13818 7.15051C9.24653 7.26312 9.31938 7.4051 9.34767 7.55879C9.37596 7.71248 9.35844 7.87109 9.29729 8.0149C9.23615 8.15871 9.13407 8.28136 9.00376 8.36762C8.87345 8.45387 8.72066 8.4999 8.56439 8.5C8.45732 8.49934 8.35145 8.47739 8.25294 8.43543C8.15444 8.39347 8.06526 8.33235 7.99059 8.2556L6.53484 6.74673L5.53601 7.74556L7.01301 9.27569C7.16225 9.42511 7.24608 9.62767 7.24608 9.83886C7.24608 10.0501 7.16225 10.2526 7.01301 10.402C6.94017 10.4738 6.85385 10.5305 6.75902 10.5688C6.66419 10.6071 6.56273 10.6262 6.46046 10.6252C6.35339 10.6245 6.24753 10.6026 6.14902 10.5606C6.05051 10.5186 5.96133 10.4575 5.88667 10.3808L4.40967 8.87191L3.41084 9.87074L4.88783 11.4009C4.99618 11.5135 5.06903 11.6555 5.09732 11.8091C5.12561 11.9628 5.10809 12.1214 5.04694 12.2652C4.9858 12.4091 4.88372 12.5317 4.75341 12.618C4.6231 12.7042 4.47031 12.7503 4.31404 12.7503C4.20697 12.7497 4.1011 12.7277 4.00259 12.6858C3.90409 12.6438 3.8149 12.5827 3.74024 12.506L2.28449 10.9971L1.0944 12.1872C0.945155 12.3366 0.861328 12.5392 0.861328 12.7503C0.861328 12.9615 0.945155 13.1641 1.0944 13.3135L4.54781 16.7669C4.69723 16.9162 4.89979 17 5.11098 17C5.32217 17 5.52472 16.9162 5.67415 16.7669L17.6283 4.81282C17.7775 4.66339 17.8613 4.46084 17.8613 4.24965C17.8613 4.03846 17.7775 3.8359 17.6283 3.68648Z" fill="#222222"/>
</svg>
