<svg width="32" height="27" viewBox="0 0 32 27" fill="none" xmlns="http://www.w3.org/2000/svg">
<path d="M1.96187 11.5231C1.96187 11.5231 16.1147 5.71479 21.0231 3.66954C22.9048 2.8515 29.2858 0.233567 29.2858 0.233567C29.2858 0.233567 32.2309 -0.911679 31.9855 1.86975C31.9036 3.01511 31.2492 7.02364 30.5948 11.3595C29.613 17.4952 28.5495 24.2034 28.5495 24.2034C28.5495 24.2034 28.3859 26.085 26.9952 26.4122C25.6045 26.7394 23.3137 25.267 22.9048 24.9397C22.5775 24.6943 16.7691 21.0129 14.6421 19.2131C14.0694 18.7223 13.415 17.7406 14.7239 16.5953C17.669 13.8956 21.1867 10.5415 23.3137 8.41447C24.2955 7.43272 25.2771 5.14211 21.1867 7.92354C15.3784 11.9322 9.65184 15.6954 9.65184 15.6954C9.65184 15.6954 8.34287 16.5134 5.88866 15.7771C3.43433 15.0409 0.571038 14.0592 0.571038 14.0592C0.571038 14.0592 -1.39224 12.8321 1.96187 11.5231Z" fill="#222222"/>
</svg>
