<svg width="32" height="21" viewBox="0 0 32 21" fill="none" xmlns="http://www.w3.org/2000/svg">
<path d="M23.8824 10.1881C27.7965 12.2864 30.4437 15.3482 31.8379 19.4777C31.868 19.568 31.8889 19.663 31.9259 19.751C32.0858 20.1169 31.9954 20.2489 31.5716 20.2443C30.0137 20.2211 28.455 20.2211 26.8955 20.2443C26.7397 20.2683 26.5806 20.2314 26.4513 20.1413C26.3219 20.0512 26.2322 19.9147 26.2007 19.7602C25.2048 17.0922 23.5095 15.0378 20.8738 13.8242C20.134 13.4964 19.3559 13.2629 18.5578 13.1294C18.1525 13.0646 18.0668 13.1873 18.0668 13.5648C18.0807 15.5659 18.0483 17.5693 18.0876 19.568C18.0876 20.1493 17.9162 20.2628 17.3789 20.2466C14.0693 20.2026 10.9218 19.5518 8.0731 17.7939C4.90707 15.8276 2.87823 12.9557 1.59978 9.50251C0.55756 6.70242 0.122145 3.77959 0.00171147 0.803478C-0.0145008 0.363431 0.0781407 0.217521 0.552928 0.217521C1.99505 0.249945 3.43794 0.249945 4.8816 0.217521C5.34481 0.217521 5.50924 0.337955 5.51851 0.815058C5.53606 3.12813 5.94724 5.42134 6.73443 7.59641C7.63305 9.99119 8.96245 12.0664 11.2414 13.3865C11.5738 13.5771 11.9198 13.7427 12.2767 13.8821C12.8881 14.1137 12.9159 14.0952 12.9182 13.456V5.83854C12.9182 4.14552 12.9345 2.45018 12.9182 0.757157C12.9043 0.314794 13.0387 0.217521 13.4602 0.217521C14.7873 0.245313 16.1167 0.249945 17.4438 0.217521C17.9371 0.217521 18.1015 0.317111 18.0946 0.845167C18.0668 3.07783 18.0946 5.3128 18.0668 7.54083C18.0668 8.05267 18.1895 8.16616 18.6875 8.03414C20.3481 7.58947 21.652 6.61441 22.7892 5.37533C24.0258 4.04935 24.9564 2.46813 25.5152 0.743261C25.5278 0.660263 25.5569 0.580625 25.6007 0.509027C25.6445 0.437429 25.7022 0.375315 25.7704 0.326335C25.8386 0.277355 25.9159 0.242498 25.9977 0.223812C26.0796 0.205125 26.1643 0.202986 26.247 0.217521C27.6135 0.242997 28.9799 0.240681 30.3464 0.217521C30.7587 0.217521 30.8722 0.298582 30.7656 0.736313C29.8207 4.61799 27.5973 7.60336 24.3548 9.86845C24.2159 9.96572 24.0885 10.056 23.8824 10.1881Z" fill="#222222"/>
</svg>
