<svg width="32" height="24" viewBox="0 0 32 24" fill="none" xmlns="http://www.w3.org/2000/svg">
<path d="M16.7089 23.5104L10.1438 23.3877C8.01813 23.3449 5.88718 23.4303 3.80321 22.9873C0.633005 22.3255 0.408416 19.0804 0.173408 16.3584C-0.150409 12.5315 -0.02505 8.63527 0.586035 4.8404C0.931013 2.71109 2.28864 1.44051 4.38816 1.30224C11.4756 0.800465 18.6102 0.859931 25.6819 1.09403C26.4288 1.11549 27.1808 1.23278 27.9172 1.3663C31.5525 2.01748 31.6411 5.69488 31.8767 8.79057C32.1118 11.9182 32.0125 15.0619 31.5634 18.1682C31.203 20.7402 30.5135 22.897 27.6038 23.1052C23.9581 23.3775 20.3961 23.5967 16.7402 23.5269C16.7404 23.5104 16.7194 23.5104 16.7089 23.5104ZM12.8493 16.9989C15.5966 15.3869 18.2915 13.8018 21.0231 12.2006C18.2706 10.5886 15.5809 9.00354 12.8493 7.40237V16.9989Z" fill="#222222"/>
</svg>
